<svg width="192" height="35" viewBox="0 0 192 35" fill="none" xmlns="http://www.w3.org/2000/svg">
<path d="M55.9101 18.582C57.569 18.7096 58.9225 19.0195 59.9707 19.5117C61.028 19.9948 61.789 20.5918 62.2539 21.3027C62.7278 22.0046 62.9648 22.7611 62.9648 23.5723C62.9648 24.7298 62.6549 25.7188 62.0351 26.5391C61.4153 27.3503 60.5267 27.9655 59.3691 28.3848C58.2116 28.7949 56.8353 29 55.2402 29C54.8392 29 54.151 28.9863 53.1758 28.959C52.2096 28.9316 51.2343 28.918 50.25 28.918C48.3268 28.918 46.8912 28.9453 45.9433 29V28.4395C46.5631 28.4121 47.0143 28.3392 47.2968 28.2207C47.5794 28.1022 47.7708 27.8835 47.8711 27.5645C47.9804 27.2454 48.0351 26.735 48.0351 26.0332V12.1426C48.0351 11.4408 47.9804 10.9303 47.8711 10.6113C47.7708 10.2923 47.5794 10.0736 47.2968 9.95508C47.0143 9.83659 46.5631 9.76367 45.9433 9.73633V9.17578C46.8821 9.23047 48.2994 9.25781 50.1953 9.25781C50.9427 9.25781 51.7721 9.2487 52.6836 9.23047C53.595 9.21224 54.2285 9.20312 54.584 9.20312C56.0879 9.20312 57.3548 9.38997 58.3847 9.76367C59.4238 10.1283 60.2031 10.6432 60.7226 11.3086C61.2422 11.9648 61.5019 12.7305 61.5019 13.6055C61.5019 14.2982 61.3014 14.9772 60.9004 15.6426C60.4993 16.3079 59.875 16.9004 59.0273 17.4199C58.1888 17.9303 57.1497 18.2995 55.9101 18.5273V18.582ZM53.6953 18.4727C54.9075 18.4727 55.7552 18.0579 56.2383 17.2285C56.7304 16.3991 56.9765 15.2917 56.9765 13.9062C56.9765 12.5026 56.7578 11.459 56.3203 10.7754C55.8828 10.0827 55.1855 9.73633 54.2285 9.73633C53.7272 9.73633 53.3535 9.80469 53.1074 9.94141C52.8704 10.069 52.7063 10.3014 52.6152 10.6387C52.5332 10.9668 52.4922 11.4681 52.4922 12.1426V18.4727H53.6953ZM52.4922 26.0332C52.4922 26.7077 52.5377 27.2044 52.6289 27.5234C52.7291 27.8424 52.9114 28.0612 53.1758 28.1797C53.4401 28.2982 53.8548 28.3574 54.4199 28.3574C57.0175 28.3574 58.3164 26.7214 58.3164 23.4492C58.3164 21.9818 57.9427 20.8652 57.1953 20.0996C56.457 19.334 55.2812 18.9512 53.6679 18.9512H52.4922V26.0332ZM69.1035 20.3457C69.0761 20.6191 69.0625 21.0566 69.0625 21.6582C69.0625 22.8978 69.2356 23.9277 69.582 24.748C69.9284 25.5592 70.375 26.1562 70.9218 26.5391C71.4778 26.9128 72.0703 27.0996 72.6992 27.0996C74.2396 27.0996 75.4746 26.3522 76.4043 24.8574L76.8965 25.0215C76.6595 25.7871 76.2903 26.5026 75.789 27.168C75.2968 27.8242 74.6679 28.362 73.9023 28.7812C73.1458 29.1914 72.2799 29.3965 71.3047 29.3965C70.0195 29.3965 68.8893 29.123 67.914 28.5762C66.9479 28.0293 66.1914 27.1999 65.6445 26.0879C65.1067 24.9668 64.8379 23.5768 64.8379 21.918C64.8379 20.2227 65.1295 18.7962 65.7129 17.6387C66.2962 16.472 67.1028 15.597 68.1328 15.0137C69.1627 14.4303 70.3522 14.1387 71.7011 14.1387C75.2103 14.1387 76.9648 16.2077 76.9648 20.3457H69.1035ZM73.4375 19.8125C73.4648 18.3542 73.3144 17.1419 72.9863 16.1758C72.6673 15.2096 72.1797 14.7266 71.5234 14.7266C70.858 14.7266 70.3021 15.1413 69.8554 15.9707C69.4179 16.791 69.1491 18.0716 69.0488 19.8125H73.4375ZM86.33 17.1875C86.33 16.4128 86.1432 15.8021 85.7695 15.3555C85.4049 14.9089 84.8307 14.6855 84.0468 14.6855C83.6823 14.6855 83.3177 14.7448 82.9531 14.8633C82.5885 14.9727 82.2877 15.1413 82.0508 15.3691C82.5703 15.5423 82.9759 15.8158 83.2675 16.1895C83.5592 16.554 83.705 17.0143 83.705 17.5703C83.705 17.9531 83.6093 18.2995 83.4179 18.6094C83.2356 18.9102 82.9713 19.1517 82.625 19.334C82.2786 19.5072 81.8821 19.5938 81.4355 19.5938C80.834 19.5938 80.3509 19.3887 79.9863 18.9785C79.6308 18.5684 79.4531 18.0534 79.4531 17.4336C79.4531 16.4674 79.9726 15.6836 81.0117 15.082C82.151 14.4531 83.5729 14.1387 85.2773 14.1387C87.1914 14.1387 88.554 14.5579 89.3652 15.3965C89.7571 15.7884 90.0215 16.276 90.1582 16.8594C90.2949 17.4427 90.3633 18.2585 90.3633 19.3066V26.9219C90.3633 27.3776 90.4043 27.7012 90.4863 27.8926C90.5774 28.0749 90.7324 28.166 90.9511 28.166C91.2519 28.166 91.5983 28.0065 91.9902 27.6875L92.2773 28.166C91.8489 28.5215 91.3841 28.7812 90.8828 28.9453C90.3815 29.1094 89.7799 29.1914 89.0781 29.1914C88.1302 29.1914 87.4466 28.9818 87.0273 28.5625C86.608 28.1432 86.3984 27.5964 86.3984 26.9219C85.9427 27.6784 85.3457 28.248 84.6074 28.6309C83.8691 29.0046 83.0807 29.1914 82.2422 29.1914C81.1758 29.1914 80.319 28.9134 79.6718 28.3574C79.0338 27.7923 78.7148 27.0085 78.7148 26.0059C78.7148 25.0306 79.0338 24.224 79.6718 23.5859C80.3099 22.9479 81.2988 22.3828 82.6386 21.8906C82.7845 21.8359 83.2584 21.6582 84.0605 21.3574C84.8626 21.0475 85.4414 20.7331 85.7968 20.4141C86.1523 20.0951 86.33 19.7441 86.33 19.3613V17.1875ZM86.33 20.5098C86.2116 20.7103 86.0156 20.9199 85.7422 21.1387C85.4778 21.3483 85.095 21.6081 84.5937 21.918C84.0013 22.3281 83.5364 22.793 83.1992 23.3125C82.8619 23.8229 82.6933 24.4609 82.6933 25.2266C82.6933 25.9557 82.8528 26.5026 83.1718 26.8672C83.4909 27.2227 83.9101 27.4004 84.4297 27.4004C85.1679 27.4004 85.8014 27.0176 86.33 26.252V20.5098ZM107.043 25.9512C107.043 26.8171 107.175 27.446 107.439 27.8379C107.713 28.2207 108.178 28.4121 108.834 28.4121V29C108.251 28.9453 107.672 28.918 107.098 28.918C105.457 28.918 104.094 29.0501 103.01 29.3145V26.7852C102.162 28.526 100.658 29.3965 98.498 29.3965C97.1035 29.3965 96.0872 29.0319 95.4492 28.3027C95.1393 27.9564 94.916 27.4961 94.7793 26.9219C94.6517 26.3477 94.5879 25.5957 94.5879 24.666V17.5703C94.5879 16.7135 94.4511 16.0892 94.1777 15.6973C93.9134 15.3053 93.4531 15.1094 92.7968 15.1094V14.5215C93.3893 14.5762 93.9681 14.6035 94.5332 14.6035C96.1647 14.6035 97.5273 14.4759 98.6211 14.2207V25.8145C98.6211 26.5892 98.735 27.1771 98.9629 27.5781C99.1998 27.9701 99.6419 28.166 100.289 28.166C100.781 28.166 101.232 28.0247 101.643 27.7422C102.062 27.4505 102.395 27.0586 102.641 26.5664C102.887 26.0651 103.01 25.5137 103.01 24.9121V17.5703C103.01 16.7135 102.873 16.0892 102.6 15.6973C102.335 15.3053 101.875 15.1094 101.219 15.1094V14.5215C101.811 14.5762 102.39 14.6035 102.955 14.6035C104.587 14.6035 105.949 14.4759 107.043 14.2207V25.9512ZM119.088 14.5488V15.1094H115.779V26.4023C115.779 26.9583 115.88 27.3548 116.08 27.5918C116.281 27.8197 116.59 27.9336 117.01 27.9336C117.803 27.9336 118.436 27.373 118.91 26.252L119.389 26.5117C118.687 28.4349 117.411 29.3965 115.561 29.3965C114.33 29.3965 113.396 29.0775 112.758 28.4395C112.366 28.0566 112.097 27.5736 111.951 26.9902C111.814 26.3978 111.746 25.582 111.746 24.543V15.1094H109.395V14.5488H111.746V10.8301C113.286 10.8301 114.631 10.5293 115.779 9.92773V14.5488H119.088ZM128.781 14.5215C129.656 14.5762 130.563 14.6035 131.502 14.6035C132.441 14.6035 133.161 14.5762 133.662 14.5215V15.082C133.27 15.1823 132.915 15.4147 132.596 15.7793C132.286 16.1439 131.994 16.7135 131.721 17.4883L126.717 31.5703C126.343 32.5456 125.933 33.2109 125.486 33.5664C124.939 34.0312 124.124 34.2637 123.039 34.2637C122.556 34.2637 122.077 34.1816 121.603 34.0176C121.139 33.8626 120.751 33.6165 120.441 33.2793C120.141 32.9421 119.99 32.5228 119.99 32.0215C119.99 31.4473 120.195 30.987 120.605 30.6406C121.016 30.2943 121.558 30.1211 122.232 30.1211C122.861 30.1211 123.367 30.276 123.75 30.5859C124.142 30.8958 124.338 31.3288 124.338 31.8848C124.338 32.2676 124.21 32.623 123.955 32.9512C123.709 33.2884 123.367 33.5391 122.93 33.7031C123.066 33.7214 123.281 33.7305 123.572 33.7305C124.739 33.7305 125.591 32.9922 126.129 31.5156L126.58 30.1758L120.633 16.6816C120.341 16.0345 120.049 15.6107 119.758 15.4102C119.475 15.2096 119.188 15.1094 118.896 15.1094V14.5215C120.127 14.6309 121.408 14.6855 122.738 14.6855C123.841 14.6855 125.14 14.6309 126.635 14.5215V15.1094C126.234 15.1094 125.919 15.123 125.691 15.1504C125.464 15.1777 125.268 15.2461 125.103 15.3555C124.949 15.4648 124.871 15.6426 124.871 15.8887C124.871 16.1074 124.935 16.3717 125.062 16.6816L128.494 24.9531L130.408 19.5664C130.709 18.6732 130.859 17.9258 130.859 17.3242C130.859 16.6133 130.677 16.0755 130.312 15.7109C129.948 15.3372 129.437 15.1276 128.781 15.082V14.5215ZM140.32 16.7363C141.168 15.0046 142.699 14.1387 144.914 14.1387C145.68 14.1387 146.304 14.2298 146.787 14.4121C147.279 14.5944 147.68 14.8633 147.99 15.2188C148.3 15.5742 148.523 16.0345 148.66 16.5996C148.797 17.1647 148.865 17.9212 148.865 18.8691V26.4023C148.865 26.9219 148.924 27.3275 149.043 27.6191C149.161 27.9108 149.348 28.1159 149.603 28.2344C149.859 28.3529 150.21 28.4121 150.656 28.4121V29C148.797 28.9271 147.566 28.8906 146.965 28.8906C146.391 28.8906 145.174 28.9271 143.314 29V28.4121C143.697 28.4121 143.998 28.3529 144.217 28.2344C144.436 28.1159 144.59 27.9108 144.682 27.6191C144.782 27.3275 144.832 26.9219 144.832 26.4023V17.6934C144.832 16.9277 144.704 16.349 144.449 15.957C144.203 15.5651 143.752 15.3691 143.096 15.3691C142.585 15.3691 142.116 15.5104 141.687 15.793C141.268 16.0755 140.936 16.4674 140.689 16.9688C140.443 17.4609 140.32 18.0078 140.32 18.6094V26.4023C140.32 26.9219 140.37 27.3275 140.471 27.6191C140.571 27.9108 140.73 28.1159 140.949 28.2344C141.168 28.3529 141.464 28.4121 141.838 28.4121V29C140.124 28.9271 138.967 28.8906 138.365 28.8906C137.791 28.8906 136.501 28.9271 134.496 29V28.4121C134.943 28.4121 135.294 28.3529 135.549 28.2344C135.813 28.1159 136 27.9108 136.109 27.6191C136.228 27.3275 136.287 26.9219 136.287 26.4023V17.5703C136.287 16.7044 136.155 16.0801 135.891 15.6973C135.626 15.3053 135.161 15.1094 134.496 15.1094V14.5215C135.089 14.5762 135.667 14.6035 136.232 14.6035C137.882 14.6035 139.245 14.4759 140.32 14.2207V16.7363ZM156.33 20.3457C156.303 20.6191 156.289 21.0566 156.289 21.6582C156.289 22.8978 156.462 23.9277 156.809 24.748C157.155 25.5592 157.602 26.1562 158.148 26.5391C158.704 26.9128 159.297 27.0996 159.926 27.0996C161.466 27.0996 162.701 26.3522 163.631 24.8574L164.123 25.0215C163.886 25.7871 163.517 26.5026 163.016 27.168C162.523 27.8242 161.895 28.362 161.129 28.7812C160.372 29.1914 159.506 29.3965 158.531 29.3965C157.246 29.3965 156.116 29.123 155.141 28.5762C154.174 28.0293 153.418 27.1999 152.871 26.0879C152.333 24.9668 152.064 23.5768 152.064 21.918C152.064 20.2227 152.356 18.7962 152.939 17.6387C153.523 16.472 154.329 15.597 155.359 15.0137C156.389 14.4303 157.579 14.1387 158.928 14.1387C162.437 14.1387 164.191 16.2077 164.191 20.3457H156.33ZM160.664 19.8125C160.691 18.3542 160.541 17.1419 160.213 16.1758C159.894 15.2096 159.406 14.7266 158.75 14.7266C158.085 14.7266 157.529 15.1413 157.082 15.9707C156.645 16.791 156.376 18.0716 156.275 19.8125H160.664ZM167.117 23.5996C167.299 25.2129 167.691 26.4753 168.293 27.3867C168.904 28.2982 169.765 28.7539 170.877 28.7539C171.424 28.7539 171.889 28.5898 172.271 28.2617C172.663 27.9245 172.859 27.4232 172.859 26.7578C172.859 26.2383 172.741 25.7734 172.504 25.3633C172.276 24.9531 171.984 24.5885 171.629 24.2695C171.273 23.9505 170.74 23.513 170.029 22.957C169.163 22.2552 168.512 21.7038 168.074 21.3027C167.646 20.9017 167.277 20.4277 166.967 19.8809C166.657 19.3249 166.502 18.696 166.502 17.9941C166.502 17.1921 166.721 16.4993 167.158 15.916C167.596 15.3327 168.184 14.8906 168.922 14.5898C169.66 14.2891 170.462 14.1387 171.328 14.1387C172.039 14.1387 172.691 14.2253 173.283 14.3984C173.876 14.5716 174.34 14.7721 174.678 15C174.86 15.1276 175.024 15.1914 175.17 15.1914C175.516 15.1914 175.735 14.8496 175.826 14.166H176.441C176.368 15.1048 176.332 16.7454 176.332 19.0879H175.717C175.553 17.8665 175.184 16.8411 174.609 16.0117C174.044 15.1732 173.219 14.7539 172.135 14.7539C171.579 14.7539 171.123 14.9134 170.768 15.2324C170.412 15.5514 170.234 15.9889 170.234 16.5449C170.234 17.1738 170.444 17.7161 170.863 18.1719C171.283 18.6276 171.788 19.0651 172.381 19.4844C172.973 19.9036 173.406 20.2181 173.68 20.4277C174.445 21.002 175.051 21.5033 175.498 21.9316C175.954 22.36 176.323 22.8477 176.605 23.3945C176.888 23.9323 177.029 24.5521 177.029 25.2539C177.029 26.0742 176.788 26.7988 176.305 27.4277C175.831 28.0566 175.188 28.5443 174.377 28.8906C173.566 29.2279 172.677 29.3965 171.711 29.3965C170.717 29.3965 169.852 29.2005 169.113 28.8086C168.557 28.526 168.12 28.3301 167.801 28.2207C167.746 28.2025 167.7 28.1934 167.664 28.1934C167.363 28.1934 167.145 28.526 167.008 29.1914H166.393C166.465 28.125 166.502 26.2611 166.502 23.5996H167.117ZM180.051 23.5996C180.233 25.2129 180.625 26.4753 181.227 27.3867C181.837 28.2982 182.699 28.7539 183.811 28.7539C184.357 28.7539 184.822 28.5898 185.205 28.2617C185.597 27.9245 185.793 27.4232 185.793 26.7578C185.793 26.2383 185.674 25.7734 185.437 25.3633C185.21 24.9531 184.918 24.5885 184.562 24.2695C184.207 23.9505 183.674 23.513 182.963 22.957C182.097 22.2552 181.445 21.7038 181.008 21.3027C180.579 20.9017 180.21 20.4277 179.9 19.8809C179.59 19.3249 179.436 18.696 179.436 17.9941C179.436 17.1921 179.654 16.4993 180.092 15.916C180.529 15.3327 181.117 14.8906 181.855 14.5898C182.594 14.2891 183.396 14.1387 184.262 14.1387C184.973 14.1387 185.624 14.2253 186.217 14.3984C186.809 14.5716 187.274 14.7721 187.611 15C187.794 15.1276 187.958 15.1914 188.103 15.1914C188.45 15.1914 188.669 14.8496 188.76 14.166H189.375C189.302 15.1048 189.266 16.7454 189.266 19.0879H188.65C188.486 17.8665 188.117 16.8411 187.543 16.0117C186.978 15.1732 186.153 14.7539 185.068 14.7539C184.512 14.7539 184.057 14.9134 183.701 15.2324C183.346 15.5514 183.168 15.9889 183.168 16.5449C183.168 17.1738 183.378 17.7161 183.797 18.1719C184.216 18.6276 184.722 19.0651 185.314 19.4844C185.907 19.9036 186.34 20.2181 186.613 20.4277C187.379 21.002 187.985 21.5033 188.432 21.9316C188.887 22.36 189.256 22.8477 189.539 23.3945C189.822 23.9323 189.963 24.5521 189.963 25.2539C189.963 26.0742 189.721 26.7988 189.238 27.4277C188.764 28.0566 188.122 28.5443 187.311 28.8906C186.499 29.2279 185.611 29.3965 184.645 29.3965C183.651 29.3965 182.785 29.2005 182.047 28.8086C181.491 28.526 181.053 28.3301 180.734 28.2207C180.68 28.2025 180.634 28.1934 180.598 28.1934C180.297 28.1934 180.078 28.526 179.941 29.1914H179.326C179.399 28.125 179.436 26.2611 179.436 23.5996H180.051Z" fill="#141414"/>
<path d="M16.5 33.75C24.9223 33.75 31.75 26.9223 31.75 18.5C31.75 10.0777 24.9223 3.25 16.5 3.25C8.07766 3.25 1.25 10.0777 1.25 18.5C1.25 26.9223 8.07766 33.75 16.5 33.75Z" stroke="#7A9CA5" stroke-width="2.5"/>
<path d="M24.766 14.1845C24.8915 15.4891 24.4194 16.7972 23.4533 17.8212L17.6714 23.9677L9.70741 24.7342L9.03711 17.7699L14.8292 11.6306C15.7952 10.6066 17.176 9.95071 18.6678 9.80713L23.8855 9.93206L24.766 14.1845Z" stroke="#7A9CA5" stroke-width="2.5" stroke-linecap="round" stroke-linejoin="round"/>
<path d="M20 14L5 29" stroke="#7A9CA5" stroke-width="2.5" stroke-linecap="round" stroke-linejoin="round"/>
<path d="M21 20H14" stroke="#7A9CA5" stroke-width="2.5" stroke-linecap="round" stroke-linejoin="round"/>
<path d="M20 14H13" stroke="#7A9CA5" stroke-width="2.5" stroke-linecap="round" stroke-linejoin="round"/>
</svg>
