<svg width="298" height="65" viewBox="0 0 298 65" fill="none" xmlns="http://www.w3.org/2000/svg">
<path d="M32.5 62.5C49.0685 62.5 62.5 49.0685 62.5 32.5C62.5 15.9315 49.0685 2.5 32.5 2.5C15.9315 2.5 2.5 15.9315 2.5 32.5C2.5 49.0685 15.9315 62.5 32.5 62.5Z" stroke="#5C8692" stroke-width="5"/>
<path d="M48.7815 23.9993C49.0288 26.5689 48.0987 29.1455 46.1959 31.1625L34.8073 43.2693L19.1207 44.7791L17.8004 31.0614L29.2089 18.9689C31.1118 16.952 33.8316 15.66 36.7699 15.3772L47.0471 15.6233L48.7815 23.9993Z" stroke="#5C8692" stroke-width="5" stroke-linecap="round" stroke-linejoin="round"/>
<path d="M39.394 23.6362L9.84851 53.1817" stroke="#5C8692" stroke-width="5" stroke-linecap="round" stroke-linejoin="round"/>
<path d="M41.3637 35.4546H27.5758" stroke="#5C8692" stroke-width="5" stroke-linecap="round" stroke-linejoin="round"/>
<path d="M39.394 23.6362H25.6061" stroke="#5C8692" stroke-width="5" stroke-linecap="round" stroke-linejoin="round"/>
<path d="M97.5859 31.1172C99.9557 31.2995 101.889 31.7422 103.387 32.4453C104.897 33.1354 105.984 33.9883 106.648 35.0039C107.325 36.0065 107.664 37.0872 107.664 38.2461C107.664 39.8997 107.221 41.3125 106.336 42.4844C105.45 43.6432 104.181 44.5221 102.527 45.1211C100.874 45.707 98.9075 46 96.6289 46C96.056 46 95.0729 45.9805 93.6797 45.9414C92.2994 45.9023 90.9062 45.8828 89.5 45.8828C86.7526 45.8828 84.7018 45.9219 83.3476 46V45.1992C84.233 45.1602 84.8776 45.056 85.2812 44.8867C85.6849 44.7174 85.9583 44.4049 86.1015 43.9492C86.2578 43.4935 86.3359 42.7643 86.3359 41.7617V21.918C86.3359 20.9154 86.2578 20.1862 86.1015 19.7305C85.9583 19.2747 85.6849 18.9622 85.2812 18.793C84.8776 18.6237 84.233 18.5195 83.3476 18.4805V17.6797C84.6888 17.7578 86.7135 17.7969 89.4218 17.7969C90.4896 17.7969 91.6744 17.7839 92.9765 17.7578C94.2786 17.7318 95.1836 17.7188 95.6914 17.7188C97.8398 17.7188 99.6497 17.9857 101.121 18.5195C102.605 19.0404 103.719 19.776 104.461 20.7266C105.203 21.6641 105.574 22.7578 105.574 24.0078C105.574 24.9974 105.288 25.9674 104.715 26.918C104.142 27.8685 103.25 28.7148 102.039 29.457C100.841 30.1862 99.3567 30.7135 97.5859 31.0391V31.1172ZM94.4218 30.9609C96.1536 30.9609 97.3646 30.3685 98.0547 29.1836C98.7578 27.9987 99.1093 26.4167 99.1093 24.4375C99.1093 22.4323 98.7968 20.9414 98.1718 19.9648C97.5468 18.9753 96.5508 18.4805 95.1836 18.4805C94.4674 18.4805 93.9336 18.5781 93.582 18.7734C93.2435 18.9557 93.0091 19.2878 92.8789 19.7695C92.7617 20.2383 92.7031 20.9544 92.7031 21.918V30.9609H94.4218ZM92.7031 41.7617C92.7031 42.7253 92.7682 43.4349 92.8984 43.8906C93.0416 44.3464 93.3021 44.6589 93.6797 44.8281C94.0573 44.9974 94.6497 45.082 95.457 45.082C99.1679 45.082 101.023 42.7448 101.023 38.0703C101.023 35.974 100.49 34.3789 99.4218 33.2852C98.3672 32.1914 96.6875 31.6445 94.3828 31.6445H92.7031V41.7617ZM117.234 33.6367C117.194 34.0273 117.175 34.6523 117.175 35.5117C117.175 37.2826 117.422 38.7539 117.917 39.9258C118.412 41.0846 119.05 41.9375 119.831 42.4844C120.625 43.0182 121.472 43.2852 122.37 43.2852C124.571 43.2852 126.335 42.2174 127.663 40.082L128.366 40.3164C128.028 41.4102 127.5 42.4323 126.784 43.3828C126.081 44.3203 125.183 45.0885 124.089 45.6875C123.008 46.2734 121.771 46.5664 120.378 46.5664C118.542 46.5664 116.928 46.1758 115.534 45.3945C114.154 44.6133 113.073 43.4284 112.292 41.8398C111.524 40.2383 111.14 38.2526 111.14 35.8828C111.14 33.4609 111.556 31.4232 112.39 29.7695C113.223 28.1029 114.375 26.8529 115.847 26.0195C117.318 25.1862 119.017 24.7695 120.944 24.7695C125.958 24.7695 128.464 27.7253 128.464 33.6367H117.234ZM123.425 32.875C123.464 30.7917 123.249 29.0599 122.78 27.6797C122.325 26.2995 121.628 25.6094 120.691 25.6094C119.74 25.6094 118.946 26.2018 118.308 27.3867C117.683 28.5586 117.299 30.388 117.155 32.875H123.425ZM142.643 29.125C142.643 28.0182 142.376 27.1458 141.842 26.5078C141.321 25.8698 140.501 25.5508 139.381 25.5508C138.86 25.5508 138.34 25.6354 137.819 25.8047C137.298 25.9609 136.868 26.2018 136.53 26.5273C137.272 26.7747 137.851 27.1654 138.268 27.6992C138.685 28.2201 138.893 28.8776 138.893 29.6719C138.893 30.2188 138.756 30.7135 138.483 31.1562C138.222 31.5859 137.845 31.931 137.35 32.1914C136.855 32.4388 136.289 32.5625 135.651 32.5625C134.791 32.5625 134.101 32.2695 133.58 31.6836C133.073 31.0977 132.819 30.362 132.819 29.4766C132.819 28.0964 133.561 26.9766 135.045 26.1172C136.673 25.2188 138.704 24.7695 141.139 24.7695C143.873 24.7695 145.82 25.3685 146.979 26.5664C147.539 27.1263 147.916 27.8229 148.112 28.6562C148.307 29.4896 148.405 30.6549 148.405 32.1523V43.0312C148.405 43.6823 148.463 44.1445 148.58 44.418C148.711 44.6784 148.932 44.8086 149.244 44.8086C149.674 44.8086 150.169 44.5807 150.729 44.125L151.139 44.8086C150.527 45.3164 149.863 45.6875 149.147 45.9219C148.431 46.1562 147.571 46.2734 146.569 46.2734C145.215 46.2734 144.238 45.974 143.639 45.375C143.04 44.776 142.741 43.9948 142.741 43.0312C142.09 44.112 141.237 44.9258 140.182 45.4727C139.127 46.0065 138.001 46.2734 136.803 46.2734C135.28 46.2734 134.056 45.8763 133.131 45.082C132.22 44.2747 131.764 43.1549 131.764 41.7227C131.764 40.3294 132.22 39.1771 133.131 38.2656C134.043 37.3542 135.455 36.5469 137.369 35.8438C137.578 35.7656 138.255 35.5117 139.401 35.082C140.547 34.6393 141.373 34.1901 141.881 33.7344C142.389 33.2786 142.643 32.7773 142.643 32.2305V29.125ZM142.643 33.8711C142.474 34.1576 142.194 34.457 141.803 34.7695C141.425 35.069 140.879 35.4401 140.162 35.8828C139.316 36.4688 138.652 37.1328 138.17 37.875C137.689 38.6042 137.448 39.5156 137.448 40.6094C137.448 41.651 137.675 42.4323 138.131 42.9531C138.587 43.4609 139.186 43.7148 139.928 43.7148C140.983 43.7148 141.888 43.168 142.643 42.0742V33.8711ZM173.033 41.6445C173.033 42.8815 173.222 43.7799 173.599 44.3398C173.99 44.8867 174.654 45.1602 175.591 45.1602V46C174.758 45.9219 173.931 45.8828 173.111 45.8828C170.767 45.8828 168.821 46.0716 167.271 46.4492V42.8359C166.06 45.3229 163.912 46.5664 160.826 46.5664C158.834 46.5664 157.382 46.0456 156.47 45.0039C156.028 44.5091 155.709 43.8516 155.513 43.0312C155.331 42.2109 155.24 41.1367 155.24 39.8086V29.6719C155.24 28.4479 155.045 27.556 154.654 26.9961C154.276 26.4362 153.619 26.1562 152.681 26.1562V25.3164C153.528 25.3945 154.354 25.4336 155.162 25.4336C157.492 25.4336 159.439 25.2513 161.002 24.8867V41.4492C161.002 42.556 161.164 43.3958 161.49 43.9688C161.828 44.5286 162.46 44.8086 163.384 44.8086C164.087 44.8086 164.732 44.6068 165.318 44.2031C165.917 43.7865 166.392 43.2266 166.744 42.5234C167.095 41.8073 167.271 41.0195 167.271 40.1602V29.6719C167.271 28.4479 167.076 27.556 166.685 26.9961C166.308 26.4362 165.65 26.1562 164.712 26.1562V25.3164C165.559 25.3945 166.386 25.4336 167.193 25.4336C169.524 25.4336 171.47 25.2513 173.033 24.8867V41.6445ZM191.04 25.3555V26.1562H186.313V42.2891C186.313 43.0833 186.456 43.6497 186.743 43.9883C187.029 44.3138 187.472 44.4766 188.071 44.4766C189.204 44.4766 190.109 43.6758 190.786 42.0742L191.469 42.4453C190.467 45.1927 188.644 46.5664 186.001 46.5664C184.243 46.5664 182.908 46.1107 181.997 45.1992C181.437 44.6523 181.053 43.9622 180.844 43.1289C180.649 42.2826 180.552 41.1172 180.552 39.6328V26.1562H177.192V25.3555H180.552V20.043C182.752 20.043 184.673 19.6133 186.313 18.7539V25.3555H191.04ZM205.687 25.3164C206.937 25.3945 208.233 25.4336 209.574 25.4336C210.915 25.4336 211.944 25.3945 212.66 25.3164V26.1172C212.1 26.2604 211.592 26.5924 211.137 27.1133C210.694 27.6341 210.277 28.4479 209.887 29.5547L202.738 49.6719C202.204 51.0651 201.618 52.0156 200.98 52.5234C200.199 53.1875 199.034 53.5195 197.484 53.5195C196.794 53.5195 196.111 53.4023 195.434 53.168C194.77 52.9466 194.216 52.5951 193.773 52.1133C193.344 51.6315 193.129 51.0326 193.129 50.3164C193.129 49.4961 193.422 48.8385 194.008 48.3438C194.594 47.849 195.368 47.6016 196.332 47.6016C197.23 47.6016 197.953 47.8229 198.5 48.2656C199.06 48.7083 199.34 49.3268 199.34 50.1211C199.34 50.668 199.158 51.1758 198.793 51.6445C198.441 52.1263 197.953 52.4844 197.328 52.7188C197.523 52.7448 197.829 52.7578 198.246 52.7578C199.913 52.7578 201.13 51.7031 201.898 49.5938L202.543 47.6797L194.047 28.4023C193.63 27.4779 193.214 26.8724 192.797 26.5859C192.393 26.2995 191.983 26.1562 191.566 26.1562V25.3164C193.324 25.4727 195.154 25.5508 197.055 25.5508C198.63 25.5508 200.486 25.4727 202.621 25.3164V26.1562C202.048 26.1562 201.599 26.1758 201.273 26.2148C200.948 26.2539 200.668 26.3516 200.434 26.5078C200.212 26.6641 200.102 26.918 200.102 27.2695C200.102 27.582 200.193 27.9596 200.375 28.4023L205.277 40.2188L208.012 32.5234C208.441 31.2474 208.656 30.1797 208.656 29.3203C208.656 28.3047 208.396 27.5365 207.875 27.0156C207.354 26.4818 206.625 26.1823 205.687 26.1172V25.3164ZM222.972 28.4805C224.183 26.0065 226.37 24.7695 229.534 24.7695C230.628 24.7695 231.52 24.8997 232.21 25.1602C232.913 25.4206 233.486 25.8047 233.929 26.3125C234.372 26.8203 234.691 27.4779 234.886 28.2852C235.081 29.0924 235.179 30.1732 235.179 31.5273V42.2891C235.179 43.0312 235.264 43.6107 235.433 44.0273C235.602 44.444 235.869 44.737 236.234 44.9062C236.598 45.0755 237.099 45.1602 237.737 45.1602V46C235.081 45.8958 233.323 45.8438 232.464 45.8438C231.644 45.8438 229.905 45.8958 227.249 46V45.1602C227.796 45.1602 228.226 45.0755 228.538 44.9062C228.851 44.737 229.072 44.444 229.202 44.0273C229.346 43.6107 229.417 43.0312 229.417 42.2891V29.8477C229.417 28.7539 229.235 27.9271 228.87 27.3672C228.519 26.8073 227.874 26.5273 226.937 26.5273C226.208 26.5273 225.537 26.7292 224.925 27.1328C224.326 27.5365 223.851 28.0964 223.499 28.8125C223.148 29.5156 222.972 30.2969 222.972 31.1562V42.2891C222.972 43.0312 223.043 43.6107 223.187 44.0273C223.33 44.444 223.558 44.737 223.87 44.9062C224.183 45.0755 224.606 45.1602 225.14 45.1602V46C222.692 45.8958 221.038 45.8438 220.179 45.8438C219.359 45.8438 217.516 45.8958 214.652 46V45.1602C215.29 45.1602 215.791 45.0755 216.155 44.9062C216.533 44.737 216.8 44.444 216.956 44.0273C217.125 43.6107 217.21 43.0312 217.21 42.2891V29.6719C217.21 28.4349 217.021 27.543 216.644 26.9961C216.266 26.4362 215.602 26.1562 214.652 26.1562V25.3164C215.498 25.3945 216.325 25.4336 217.132 25.4336C219.489 25.4336 221.435 25.2513 222.972 24.8867V28.4805ZM246.643 33.6367C246.604 34.0273 246.584 34.6523 246.584 35.5117C246.584 37.2826 246.832 38.7539 247.327 39.9258C247.821 41.0846 248.459 41.9375 249.241 42.4844C250.035 43.0182 250.881 43.2852 251.78 43.2852C253.98 43.2852 255.745 42.2174 257.073 40.082L257.776 40.3164C257.437 41.4102 256.91 42.4323 256.194 43.3828C255.491 44.3203 254.592 45.0885 253.498 45.6875C252.418 46.2734 251.181 46.5664 249.787 46.5664C247.952 46.5664 246.337 46.1758 244.944 45.3945C243.564 44.6133 242.483 43.4284 241.702 41.8398C240.933 40.2383 240.549 38.2526 240.549 35.8828C240.549 33.4609 240.966 31.4232 241.799 29.7695C242.633 28.1029 243.785 26.8529 245.256 26.0195C246.728 25.1862 248.427 24.7695 250.354 24.7695C255.367 24.7695 257.873 27.7253 257.873 33.6367H246.643ZM252.834 32.875C252.873 30.7917 252.659 29.0599 252.19 27.6797C251.734 26.2995 251.037 25.6094 250.1 25.6094C249.149 25.6094 248.355 26.2018 247.717 27.3867C247.092 28.5586 246.708 30.388 246.565 32.875H252.834ZM262.853 38.2852C263.114 40.5898 263.673 42.3932 264.533 43.6953C265.405 44.9974 266.636 45.6484 268.224 45.6484C269.005 45.6484 269.669 45.4141 270.216 44.9453C270.776 44.4635 271.056 43.7474 271.056 42.7969C271.056 42.0547 270.887 41.3906 270.548 40.8047C270.223 40.2188 269.806 39.6979 269.298 39.2422C268.791 38.7865 268.029 38.1615 267.013 37.3672C265.776 36.3646 264.845 35.5768 264.22 35.0039C263.608 34.431 263.081 33.7539 262.638 32.9727C262.196 32.1784 261.974 31.2799 261.974 30.2773C261.974 29.1315 262.287 28.1419 262.912 27.3086C263.537 26.4753 264.377 25.8438 265.431 25.4141C266.486 24.9844 267.632 24.7695 268.869 24.7695C269.884 24.7695 270.815 24.8932 271.662 25.1406C272.508 25.388 273.172 25.6745 273.654 26C273.914 26.1823 274.149 26.2734 274.357 26.2734C274.852 26.2734 275.164 25.7852 275.294 24.8086H276.173C276.069 26.1497 276.017 28.4935 276.017 31.8398H275.138C274.904 30.0951 274.377 28.6302 273.556 27.4453C272.749 26.2474 271.571 25.6484 270.021 25.6484C269.227 25.6484 268.576 25.8763 268.068 26.332C267.56 26.7878 267.306 27.4128 267.306 28.207C267.306 29.1055 267.606 29.8802 268.205 30.5312C268.804 31.1823 269.526 31.8073 270.373 32.4062C271.219 33.0052 271.837 33.4544 272.228 33.7539C273.322 34.5742 274.188 35.2904 274.826 35.9023C275.477 36.5143 276.004 37.2109 276.408 37.9922C276.811 38.7604 277.013 39.6458 277.013 40.6484C277.013 41.8203 276.668 42.8555 275.978 43.7539C275.301 44.6523 274.383 45.349 273.224 45.8438C272.065 46.3255 270.796 46.5664 269.416 46.5664C267.996 46.5664 266.759 46.2865 265.705 45.7266C264.91 45.3229 264.285 45.043 263.83 44.8867C263.752 44.8607 263.686 44.8477 263.634 44.8477C263.205 44.8477 262.892 45.3229 262.697 46.2734H261.818C261.922 44.75 261.974 42.0872 261.974 38.2852H262.853ZM282.13 38.2852C282.39 40.5898 282.95 42.3932 283.809 43.6953C284.682 44.9974 285.912 45.6484 287.501 45.6484C288.282 45.6484 288.946 45.4141 289.493 44.9453C290.053 44.4635 290.333 43.7474 290.333 42.7969C290.333 42.0547 290.164 41.3906 289.825 40.8047C289.499 40.2188 289.083 39.6979 288.575 39.2422C288.067 38.7865 287.305 38.1615 286.29 37.3672C285.053 36.3646 284.122 35.5768 283.497 35.0039C282.885 34.431 282.358 33.7539 281.915 32.9727C281.472 32.1784 281.251 31.2799 281.251 30.2773C281.251 29.1315 281.563 28.1419 282.188 27.3086C282.813 26.4753 283.653 25.8438 284.708 25.4141C285.762 24.9844 286.908 24.7695 288.145 24.7695C289.161 24.7695 290.092 24.8932 290.938 25.1406C291.785 25.388 292.449 25.6745 292.93 26C293.191 26.1823 293.425 26.2734 293.634 26.2734C294.128 26.2734 294.441 25.7852 294.571 24.8086H295.45C295.346 26.1497 295.294 28.4935 295.294 31.8398H294.415C294.18 30.0951 293.653 28.6302 292.833 27.4453C292.025 26.2474 290.847 25.6484 289.298 25.6484C288.503 25.6484 287.852 25.8763 287.344 26.332C286.837 26.7878 286.583 27.4128 286.583 28.207C286.583 29.1055 286.882 29.8802 287.481 30.5312C288.08 31.1823 288.803 31.8073 289.649 32.4062C290.496 33.0052 291.114 33.4544 291.505 33.7539C292.598 34.5742 293.464 35.2904 294.102 35.9023C294.753 36.5143 295.281 37.2109 295.684 37.9922C296.088 38.7604 296.29 39.6458 296.29 40.6484C296.29 41.8203 295.945 42.8555 295.255 43.7539C294.578 44.6523 293.66 45.349 292.501 45.8438C291.342 46.3255 290.072 46.5664 288.692 46.5664C287.273 46.5664 286.036 46.2865 284.981 45.7266C284.187 45.3229 283.562 45.043 283.106 44.8867C283.028 44.8607 282.963 44.8477 282.911 44.8477C282.481 44.8477 282.169 45.3229 281.973 46.2734H281.094C281.199 44.75 281.251 42.0872 281.251 38.2852H282.13Z" fill="white"/>
</svg>
