<svg width="204" height="17" viewBox="0 0 204 17" fill="none" xmlns="http://www.w3.org/2000/svg">
<path d="M5.784 14.24C4.63733 14.24 3.66933 13.9867 2.88 13.48C2.09067 12.968 1.49333 12.2613 1.088 11.36C0.682667 10.4587 0.48 9.41867 0.48 8.24C0.48 7.06133 0.682667 6.02133 1.088 5.12C1.49333 4.21867 2.09067 3.51467 2.88 3.008C3.66933 2.496 4.63733 2.24 5.784 2.24C7.12267 2.24 8.216 2.584 9.064 3.272C9.912 3.95467 10.4933 4.872 10.808 6.024L9.608 6.336C9.36267 5.424 8.92267 4.70133 8.288 4.168C7.65333 3.63467 6.81867 3.368 5.784 3.368C4.88267 3.368 4.13333 3.57333 3.536 3.984C2.93867 4.39467 2.488 4.968 2.184 5.704C1.88533 6.43467 1.73067 7.28 1.72 8.24C1.71467 9.2 1.86133 10.0453 2.16 10.776C2.464 11.5067 2.91733 12.08 3.52 12.496C4.128 12.9067 4.88267 13.112 5.784 13.112C6.81867 13.112 7.65333 12.8453 8.288 12.312C8.92267 11.7733 9.36267 11.0507 9.608 10.144L10.808 10.456C10.4933 11.608 9.912 12.528 9.064 13.216C8.216 13.8987 7.12267 14.24 5.784 14.24ZM15.0451 14.24C14.3945 14.24 13.8478 14.1227 13.4051 13.888C12.9678 13.6533 12.6398 13.3413 12.4211 12.952C12.2025 12.5627 12.0931 12.1387 12.0931 11.68C12.0931 11.2107 12.1865 10.8107 12.3731 10.48C12.5651 10.144 12.8238 9.86933 13.1491 9.656C13.4798 9.44267 13.8611 9.28 14.2931 9.168C14.7305 9.06133 15.2131 8.968 15.7411 8.888C16.2745 8.80267 16.7945 8.73067 17.3011 8.672C17.8131 8.608 18.2611 8.54667 18.6451 8.488L18.2291 8.744C18.2451 7.89067 18.0798 7.25867 17.7331 6.848C17.3865 6.43733 16.7838 6.232 15.9251 6.232C15.3331 6.232 14.8318 6.36533 14.4211 6.632C14.0158 6.89867 13.7305 7.32 13.5651 7.896L12.4211 7.56C12.6185 6.78667 13.0158 6.18667 13.6131 5.76C14.2105 5.33333 14.9865 5.12 15.9411 5.12C16.7305 5.12 17.3998 5.26933 17.9491 5.568C18.5038 5.86133 18.8958 6.288 19.1251 6.848C19.2318 7.09867 19.3011 7.37867 19.3331 7.688C19.3651 7.99733 19.3811 8.312 19.3811 8.632V14H18.3331V11.832L18.6371 11.96C18.3438 12.7013 17.8878 13.2667 17.2691 13.656C16.6505 14.0453 15.9091 14.24 15.0451 14.24ZM15.1811 13.224C15.7305 13.224 16.2105 13.1253 16.6211 12.928C17.0318 12.7307 17.3625 12.4613 17.6131 12.12C17.8638 11.7733 18.0265 11.384 18.1011 10.952C18.1651 10.6747 18.1998 10.3707 18.2051 10.04C18.2105 9.704 18.2131 9.45333 18.2131 9.288L18.6611 9.52C18.2611 9.57333 17.8265 9.62667 17.3571 9.68C16.8931 9.73333 16.4345 9.79467 15.9811 9.864C15.5331 9.93333 15.1278 10.016 14.7651 10.112C14.5198 10.1813 14.2825 10.28 14.0531 10.408C13.8238 10.5307 13.6345 10.696 13.4851 10.904C13.3411 11.112 13.2691 11.3707 13.2691 11.68C13.2691 11.9307 13.3305 12.1733 13.4531 12.408C13.5811 12.6427 13.7838 12.8373 14.0611 12.992C14.3438 13.1467 14.7171 13.224 15.1811 13.224ZM21.6238 14V2.24H22.7998V14H21.6238ZM25.3581 14V2.24H26.5341V14H25.3581ZM36.6316 14.24C35.7516 14.24 34.973 14.0587 34.2956 13.696C33.6236 13.3333 33.0956 12.8213 32.7116 12.16C32.3276 11.4987 32.1356 10.7253 32.1356 9.84V2.488L33.3196 2.48V9.688C33.3196 10.2853 33.421 10.8027 33.6236 11.24C33.8263 11.672 34.0903 12.0293 34.4156 12.312C34.7463 12.5893 35.1063 12.7947 35.4956 12.928C35.885 13.0613 36.2636 13.128 36.6316 13.128C37.005 13.128 37.3863 13.0613 37.7756 12.928C38.165 12.7947 38.5223 12.5893 38.8476 12.312C39.173 12.0293 39.437 11.672 39.6396 11.24C39.8423 10.8027 39.9436 10.2853 39.9436 9.688V2.48H41.1276V9.84C41.1276 10.7253 40.9356 11.4987 40.5516 12.16C40.1676 12.816 39.637 13.328 38.9596 13.696C38.2876 14.0587 37.5116 14.24 36.6316 14.24ZM46.594 14.232C45.5807 14.232 44.746 14.0133 44.09 13.576C43.4393 13.1387 43.0393 12.5307 42.89 11.752L44.09 11.552C44.218 12.0427 44.5087 12.4347 44.962 12.728C45.4207 13.016 45.986 13.16 46.658 13.16C47.314 13.16 47.8313 13.024 48.21 12.752C48.5887 12.4747 48.778 12.0987 48.778 11.624C48.778 11.3573 48.7167 11.1413 48.594 10.976C48.4767 10.8053 48.234 10.648 47.866 10.504C47.498 10.36 46.9487 10.1893 46.218 9.992C45.434 9.77867 44.8207 9.56533 44.378 9.352C43.9353 9.13867 43.6207 8.89333 43.434 8.616C43.2473 8.33333 43.154 7.98933 43.154 7.584C43.154 7.09333 43.2927 6.664 43.57 6.296C43.8473 5.92267 44.2313 5.63467 44.722 5.432C45.2127 5.224 45.7833 5.12 46.434 5.12C47.0847 5.12 47.666 5.22667 48.178 5.44C48.6953 5.648 49.1113 5.94133 49.426 6.32C49.7407 6.69867 49.9273 7.13867 49.986 7.64L48.786 7.856C48.706 7.34933 48.4527 6.94933 48.026 6.656C47.6047 6.35733 47.0687 6.20267 46.418 6.192C45.8047 6.176 45.306 6.29333 44.922 6.544C44.538 6.78933 44.346 7.11733 44.346 7.528C44.346 7.75733 44.4153 7.95467 44.554 8.12C44.6927 8.28 44.9433 8.432 45.306 8.576C45.674 8.72 46.1967 8.87733 46.874 9.048C47.6687 9.25067 48.2927 9.464 48.746 9.688C49.1993 9.912 49.522 10.176 49.714 10.48C49.906 10.784 50.002 11.16 50.002 11.608C50.002 12.424 49.698 13.0667 49.09 13.536C48.4873 14 47.6553 14.232 46.594 14.232ZM54.8194 9.464V8.456H59.6194V9.464H54.8194ZM69.0373 16.872C68.4079 16.152 67.8666 15.3467 67.4133 14.456C66.9653 13.5707 66.6186 12.64 66.3733 11.664C66.1333 10.688 66.0159 9.70667 66.0213 8.72C66.0159 7.73333 66.1333 6.752 66.3733 5.776C66.6186 4.79467 66.9653 3.86133 67.4133 2.976C67.8666 2.09067 68.4079 1.288 69.0373 0.567999L69.9013 1.24C69.2826 1.98133 68.7653 2.76 68.3493 3.576C67.9333 4.38667 67.6213 5.224 67.4133 6.088C67.2106 6.952 67.1066 7.82933 67.1013 8.72C67.1066 9.6 67.2133 10.4773 67.4213 11.352C67.6346 12.2213 67.9466 13.0667 68.3573 13.888C68.7733 14.704 69.2879 15.4693 69.9013 16.184L69.0373 16.872ZM74.7057 11.896V8.744H71.5538V7.736H74.7057V4.584H75.7138V7.736H78.8577V8.744H75.7138V11.896H74.7057ZM80.6125 13.992L80.6205 12.92L85.8285 8.216C86.2765 7.81067 86.5725 7.42667 86.7165 7.064C86.8658 6.696 86.9405 6.312 86.9405 5.912C86.9405 5.43733 86.8285 5.008 86.6045 4.624C86.3805 4.24 86.0792 3.936 85.7005 3.712C85.3218 3.48267 84.8978 3.368 84.4285 3.368C83.9378 3.368 83.5005 3.48533 83.1165 3.72C82.7325 3.95467 82.4285 4.264 82.2045 4.648C81.9858 5.032 81.8792 5.45067 81.8845 5.904H80.6845C80.6845 5.20533 80.8498 4.57867 81.1805 4.024C81.5112 3.46933 81.9592 3.03467 82.5245 2.72C83.0898 2.4 83.7298 2.24 84.4445 2.24C85.1432 2.24 85.7698 2.40533 86.3245 2.736C86.8845 3.06133 87.3245 3.504 87.6445 4.064C87.9698 4.61867 88.1325 5.23733 88.1325 5.92C88.1325 6.4 88.0738 6.824 87.9565 7.192C87.8445 7.55467 87.6658 7.89333 87.4205 8.208C87.1805 8.51733 86.8738 8.83733 86.5005 9.168L81.8765 13.344L81.6925 12.864H88.1325V13.992H80.6125ZM89.7375 13.992L89.7455 12.92L94.9535 8.216C95.4015 7.81067 95.6975 7.42667 95.8415 7.064C95.9908 6.696 96.0655 6.312 96.0655 5.912C96.0655 5.43733 95.9535 5.008 95.7295 4.624C95.5055 4.24 95.2042 3.936 94.8255 3.712C94.4468 3.48267 94.0228 3.368 93.5535 3.368C93.0628 3.368 92.6255 3.48533 92.2415 3.72C91.8575 3.95467 91.5535 4.264 91.3295 4.648C91.1108 5.032 91.0042 5.45067 91.0095 5.904H89.8095C89.8095 5.20533 89.9748 4.57867 90.3055 4.024C90.6362 3.46933 91.0842 3.03467 91.6495 2.72C92.2148 2.4 92.8548 2.24 93.5695 2.24C94.2682 2.24 94.8948 2.40533 95.4495 2.736C96.0095 3.06133 96.4495 3.504 96.7695 4.064C97.0948 4.61867 97.2575 5.23733 97.2575 5.92C97.2575 6.4 97.1988 6.824 97.0815 7.192C96.9695 7.55467 96.7908 7.89333 96.5455 8.208C96.3055 8.51733 95.9988 8.83733 95.6255 9.168L91.0015 13.344L90.8175 12.864H97.2575V13.992H89.7375ZM99.6225 16.392L98.7585 15.704C99.3718 14.9893 99.8838 14.224 100.295 13.408C100.711 12.5867 101.023 11.7413 101.231 10.872C101.444 9.99733 101.553 9.12 101.559 8.24C101.553 7.34933 101.447 6.472 101.239 5.608C101.036 4.744 100.727 3.90667 100.311 3.096C99.8945 2.28 99.3772 1.50133 98.7585 0.759999L99.6225 0.0879993C100.252 0.807999 100.791 1.61067 101.239 2.496C101.692 3.38133 102.039 4.31467 102.279 5.296C102.524 6.272 102.644 7.25333 102.639 8.24C102.644 9.22667 102.524 10.208 102.279 11.184C102.039 12.16 101.692 13.0933 101.239 13.984C100.791 14.8693 100.252 15.672 99.6225 16.392ZM111.206 14V3.792L109.038 5.096V3.776L111.206 2.48H112.398V14H111.206ZM115.113 13.992L115.121 12.92L120.329 8.216C120.777 7.81067 121.073 7.42667 121.217 7.064C121.366 6.696 121.441 6.312 121.441 5.912C121.441 5.43733 121.329 5.008 121.105 4.624C120.881 4.24 120.579 3.936 120.201 3.712C119.822 3.48267 119.398 3.368 118.929 3.368C118.438 3.368 118.001 3.48533 117.617 3.72C117.233 3.95467 116.929 4.264 116.705 4.648C116.486 5.032 116.379 5.45067 116.385 5.904H115.185C115.185 5.20533 115.35 4.57867 115.681 4.024C116.011 3.46933 116.459 3.03467 117.025 2.72C117.59 2.4 118.23 2.24 118.945 2.24C119.643 2.24 120.27 2.40533 120.825 2.736C121.385 3.06133 121.825 3.504 122.145 4.064C122.47 4.61867 122.633 5.23733 122.633 5.92C122.633 6.4 122.574 6.824 122.457 7.192C122.345 7.55467 122.166 7.89333 121.921 8.208C121.681 8.51733 121.374 8.83733 121.001 9.168L116.377 13.344L116.193 12.864H122.633V13.992H115.113ZM127.654 14.232C127.083 14.232 126.558 14.1307 126.078 13.928C125.598 13.7253 125.184 13.4373 124.838 13.064C124.491 12.6853 124.238 12.2347 124.078 11.712L125.198 11.376C125.39 11.9467 125.704 12.3787 126.142 12.672C126.584 12.9653 127.083 13.1067 127.638 13.096C128.15 13.0853 128.59 12.9707 128.958 12.752C129.331 12.5333 129.616 12.2293 129.814 11.84C130.011 11.4507 130.11 11 130.11 10.488C130.11 9.704 129.88 9.07467 129.422 8.6C128.968 8.12 128.368 7.88 127.622 7.88C127.414 7.88 127.195 7.90933 126.966 7.968C126.736 8.02133 126.523 8.09867 126.326 8.2L125.734 7.264L130.214 3.128L130.406 3.608H124.534V2.48H131.19V3.624L127.286 7.352L127.27 6.888C128.07 6.78667 128.774 6.87733 129.382 7.16C129.99 7.44267 130.464 7.87467 130.806 8.456C131.152 9.032 131.326 9.70933 131.326 10.488C131.326 11.224 131.166 11.8747 130.846 12.44C130.531 13 130.096 13.44 129.542 13.76C128.987 14.0747 128.358 14.232 127.654 14.232ZM141.676 14V11.768H136.284V10.648L140.14 2.48H141.46L137.604 10.648H141.676V7.288H142.86V10.648H144.116V11.768H142.86V14H141.676ZM149.442 14.24C148.845 14.24 148.293 14.1173 147.786 13.872C147.279 13.6267 146.847 13.288 146.49 12.856C146.133 12.424 145.877 11.928 145.722 11.368L146.85 11.064C146.951 11.48 147.135 11.84 147.402 12.144C147.669 12.4427 147.981 12.6747 148.338 12.84C148.701 13.0053 149.079 13.088 149.474 13.088C149.986 13.088 150.445 12.9653 150.85 12.72C151.261 12.4693 151.586 12.1387 151.826 11.728C152.066 11.3173 152.186 10.8667 152.186 10.376C152.186 9.86933 152.061 9.41333 151.81 9.008C151.559 8.59733 151.229 8.272 150.818 8.032C150.407 7.792 149.959 7.672 149.474 7.672C148.93 7.672 148.461 7.792 148.066 8.032C147.671 8.26667 147.357 8.56267 147.122 8.92L146.05 8.472L146.402 2.48H152.554V3.608H146.922L147.506 3.056L147.194 8.168L146.898 7.776C147.229 7.39733 147.629 7.10133 148.098 6.888C148.567 6.67467 149.061 6.568 149.578 6.568C150.287 6.568 150.927 6.73867 151.498 7.08C152.069 7.416 152.522 7.872 152.858 8.448C153.194 9.024 153.362 9.66667 153.362 10.376C153.362 11.08 153.183 11.7253 152.826 12.312C152.469 12.8933 151.994 13.36 151.402 13.712C150.81 14.064 150.157 14.24 149.442 14.24ZM159.172 14.24C158.452 14.24 157.796 14.0667 157.204 13.72C156.618 13.368 156.148 12.8933 155.796 12.296C155.45 11.6933 155.276 11.016 155.276 10.264V6.272C155.276 5.49867 155.45 4.81067 155.796 4.208C156.143 3.6 156.615 3.12267 157.212 2.776C157.815 2.424 158.498 2.248 159.26 2.248C159.916 2.248 160.524 2.392 161.084 2.68C161.65 2.968 162.111 3.37067 162.468 3.888L161.564 4.632C161.319 4.248 160.994 3.94133 160.588 3.712C160.183 3.48267 159.74 3.368 159.26 3.368C158.722 3.368 158.242 3.49867 157.82 3.76C157.399 4.02133 157.068 4.36533 156.828 4.792C156.588 5.21333 156.468 5.672 156.468 6.168V8.68L156.172 8.344C156.508 7.816 156.948 7.38933 157.492 7.064C158.042 6.73867 158.639 6.576 159.284 6.576C159.999 6.576 160.642 6.74667 161.212 7.088C161.783 7.424 162.236 7.88 162.572 8.456C162.908 9.032 163.076 9.67733 163.076 10.392C163.076 11.1013 162.898 11.7467 162.54 12.328C162.188 12.9093 161.716 13.3733 161.124 13.72C160.538 14.0667 159.887 14.24 159.172 14.24ZM159.172 13.096C159.674 13.096 160.13 12.976 160.54 12.736C160.956 12.496 161.284 12.1707 161.524 11.76C161.77 11.3493 161.892 10.8933 161.892 10.392C161.892 9.89067 161.77 9.43467 161.524 9.024C161.284 8.608 160.959 8.28 160.548 8.04C160.138 7.79467 159.682 7.672 159.18 7.672C158.679 7.672 158.223 7.79467 157.812 8.04C157.402 8.28 157.074 8.608 156.828 9.024C156.588 9.43467 156.468 9.89067 156.468 10.392C156.468 10.888 156.588 11.3413 156.828 11.752C157.068 12.1627 157.394 12.4907 157.804 12.736C158.215 12.976 158.671 13.096 159.172 13.096ZM169.017 14L173.257 3.624H167.921V2.48H174.513V3.624L170.281 14H169.017ZM179.945 14.24C179.225 14.24 178.587 14.096 178.033 13.808C177.483 13.52 177.051 13.1173 176.737 12.6C176.427 12.0773 176.273 11.4667 176.273 10.768C176.273 10.0533 176.446 9.41867 176.793 8.864C177.139 8.304 177.667 7.88 178.377 7.592L178.361 8.056C177.769 7.83733 177.318 7.48 177.009 6.984C176.699 6.488 176.545 5.93867 176.545 5.336C176.545 4.696 176.691 4.14667 176.985 3.688C177.278 3.224 177.678 2.86667 178.185 2.616C178.697 2.36533 179.283 2.24 179.945 2.24C180.606 2.24 181.193 2.36533 181.705 2.616C182.217 2.86667 182.619 3.224 182.913 3.688C183.206 4.14667 183.352 4.696 183.352 5.336C183.352 5.93867 183.203 6.48533 182.905 6.976C182.611 7.46667 182.161 7.82667 181.553 8.056L181.513 7.592C182.222 7.87467 182.753 8.296 183.105 8.856C183.462 9.416 183.641 10.0533 183.641 10.768C183.641 11.4667 183.483 12.0773 183.169 12.6C182.854 13.1173 182.419 13.52 181.865 13.808C181.31 14.096 180.67 14.24 179.945 14.24ZM179.945 13.112C180.67 13.112 181.259 12.912 181.713 12.512C182.166 12.1067 182.393 11.5253 182.393 10.768C182.393 10 182.169 9.41867 181.721 9.024C181.273 8.624 180.681 8.424 179.945 8.424C179.209 8.424 178.619 8.624 178.177 9.024C177.734 9.41867 177.513 10 177.513 10.768C177.513 11.5253 177.737 12.1067 178.185 12.512C178.633 12.912 179.219 13.112 179.945 13.112ZM179.945 7.288C180.585 7.288 181.105 7.12533 181.505 6.8C181.905 6.46933 182.105 5.98133 182.105 5.336C182.105 4.69067 181.905 4.208 181.505 3.888C181.105 3.56267 180.585 3.4 179.945 3.4C179.305 3.4 178.785 3.56267 178.385 3.888C177.99 4.208 177.793 4.69067 177.793 5.336C177.793 5.98133 177.99 6.46933 178.385 6.8C178.785 7.12533 179.305 7.288 179.945 7.288ZM189.506 2.248C190.231 2.248 190.887 2.424 191.474 2.776C192.066 3.12267 192.535 3.59733 192.882 4.2C193.228 4.79733 193.402 5.46933 193.402 6.216V10.216C193.402 10.984 193.228 11.672 192.882 12.28C192.535 12.888 192.06 13.368 191.458 13.72C190.86 14.0667 190.18 14.24 189.418 14.24C188.762 14.24 188.154 14.096 187.594 13.808C187.039 13.5147 186.58 13.112 186.218 12.6L187.114 11.856C187.359 12.2347 187.684 12.5387 188.09 12.768C188.5 12.9973 188.943 13.112 189.418 13.112C189.962 13.112 190.442 12.984 190.858 12.728C191.279 12.4667 191.61 12.1253 191.85 11.704C192.095 11.2773 192.218 10.816 192.218 10.32V7.808L192.506 8.144C192.175 8.672 191.735 9.09867 191.186 9.424C190.642 9.74933 190.044 9.912 189.394 9.912C188.684 9.912 188.042 9.74133 187.466 9.4C186.895 9.05867 186.442 8.6 186.106 8.024C185.775 7.448 185.61 6.80533 185.61 6.096C185.61 5.38667 185.786 4.74133 186.138 4.16C186.49 3.57333 186.962 3.10933 187.554 2.768C188.146 2.42133 188.796 2.248 189.506 2.248ZM189.506 3.384C189.004 3.384 188.548 3.50667 188.138 3.752C187.727 3.992 187.399 4.31733 187.154 4.728C186.914 5.13867 186.794 5.59467 186.794 6.096C186.794 6.59733 186.914 7.05333 187.154 7.464C187.394 7.87467 187.719 8.20267 188.13 8.448C188.54 8.688 188.996 8.808 189.498 8.808C189.999 8.808 190.455 8.688 190.866 8.448C191.282 8.20267 191.61 7.87467 191.85 7.464C192.095 7.05333 192.218 6.59733 192.218 6.096C192.218 5.6 192.095 5.14667 191.85 4.736C191.61 4.32533 191.284 3.99733 190.874 3.752C190.463 3.50667 190.007 3.384 189.506 3.384ZM199.396 14.24C198.686 14.24 198.046 14.0747 197.476 13.744C196.91 13.4133 196.462 12.9653 196.132 12.4C195.801 11.8293 195.636 11.1893 195.636 10.48V6C195.636 5.29067 195.801 4.65333 196.132 4.088C196.462 3.51733 196.91 3.06667 197.476 2.736C198.046 2.40533 198.686 2.24 199.396 2.24C200.105 2.24 200.742 2.40533 201.308 2.736C201.878 3.06667 202.329 3.51733 202.66 4.088C202.99 4.65333 203.156 5.29067 203.156 6V10.48C203.156 11.1893 202.99 11.8293 202.66 12.4C202.329 12.9653 201.878 13.4133 201.308 13.744C200.742 14.0747 200.105 14.24 199.396 14.24ZM199.396 13.104C199.87 13.104 200.302 12.9893 200.692 12.76C201.081 12.5253 201.39 12.2133 201.62 11.824C201.849 11.4347 201.964 11.0053 201.964 10.536V5.944C201.964 5.46933 201.849 5.03733 201.62 4.648C201.39 4.25867 201.081 3.94933 200.692 3.72C200.302 3.48533 199.87 3.368 199.396 3.368C198.921 3.368 198.489 3.48533 198.1 3.72C197.71 3.94933 197.401 4.25867 197.172 4.648C196.942 5.03733 196.828 5.46933 196.828 5.944V10.536C196.828 11.0053 196.942 11.4347 197.172 11.824C197.401 12.2133 197.71 12.5253 198.1 12.76C198.489 12.9893 198.921 13.104 199.396 13.104Z" fill="#141414"/>
</svg>
