<svg width="41" height="47" viewBox="0 0 41 47" fill="none" xmlns="http://www.w3.org/2000/svg">
<g id="IMAGE">
<path id="Vector" d="M37.584 32.7495V38.3895C37.5861 38.9131 37.4885 39.4313 37.2979 39.911C37.1074 40.3908 36.8277 40.8215 36.4772 41.1753C36.1266 41.5293 35.7127 41.7989 35.2621 41.9666C34.8112 42.1343 34.3337 42.1965 33.8599 42.1495C28.6031 41.5209 23.5535 39.5441 19.1169 36.3779C14.9893 33.4914 11.4898 29.6402 8.86697 25.0979C5.97985 20.1934 4.18313 14.6094 3.62239 8.79829C3.57969 8.27841 3.63585 7.75446 3.78724 7.25975C3.93865 6.76505 4.18198 6.31047 4.50178 5.92495C4.82157 5.53942 5.21081 5.23138 5.64469 5.02049C6.07859 4.80957 6.54763 4.7004 7.02197 4.69989H12.147C12.976 4.69092 13.7798 5.014 14.4084 5.60894C15.037 6.20387 15.4476 7.03006 15.5636 7.93349C15.7799 9.73842 16.1811 11.5106 16.7595 13.2163C16.9893 13.8892 17.0391 14.6205 16.9028 15.3236C16.7666 16.0266 16.45 16.672 15.9907 17.1831L13.8211 19.5707C16.253 24.2773 19.7943 28.1744 24.0711 30.8507L26.2407 28.4631C26.7052 27.9576 27.2917 27.6093 27.9304 27.4594C28.5693 27.3094 29.2339 27.3641 29.8453 27.6171C31.3952 28.2535 33.0057 28.6951 34.6457 28.9331C35.4756 29.0619 36.2334 29.522 36.7753 30.2256C37.317 30.9293 37.6049 31.8276 37.584 32.7495Z" stroke="#7A9CA5" stroke-width="2" stroke-linecap="round" stroke-linejoin="round"/>
</g>
</svg>
