<svg width="41" height="47" viewBox="0 0 41 47" fill="none" xmlns="http://www.w3.org/2000/svg">
<g id="IMAGE">
<path id="Vector" d="M3.41666 6.58008H13.6667C15.479 6.58008 17.2171 7.37237 18.4985 8.78263C19.7801 10.1929 20.5 12.1056 20.5 14.1001V40.4201C20.5 38.9244 19.96 37.4897 18.9989 36.432C18.0378 35.3744 16.7342 34.7801 15.375 34.7801H3.41666V6.58008Z" stroke="#7A9CA5" stroke-width="2" stroke-linecap="round" stroke-linejoin="round"/>
<path id="Vector_2" d="M37.5833 6.58008H27.3333C25.521 6.58008 23.7829 7.37237 22.5015 8.78263C21.2199 10.1929 20.5 12.1056 20.5 14.1001V40.4201C20.5 38.9244 21.04 37.4897 22.0011 36.432C22.9622 35.3744 24.2659 34.7801 25.625 34.7801H37.5833V6.58008Z" stroke="#7A9CA5" stroke-width="2" stroke-linecap="round" stroke-linejoin="round"/>
</g>
</svg>
