<svg width="40" height="46" viewBox="0 0 40 46" fill="none" xmlns="http://www.w3.org/2000/svg">
<g id="IMAGE">
<path id="Vector" d="M18.3339 8.30566H6.66723C5.78318 8.30566 4.93534 8.69272 4.31021 9.38164C3.68509 10.0706 3.33389 11.005 3.33389 11.9793V37.6945C3.33389 38.6688 3.68509 39.6032 4.31021 40.2922C4.93534 40.9811 5.78318 41.3682 6.66723 41.3682H30.0005C30.8847 41.3682 31.7325 40.9811 32.3576 40.2922C32.9828 39.6032 33.3339 38.6688 33.3339 37.6945V24.837" stroke="#7A9CA5" stroke-width="2" stroke-linecap="round" stroke-linejoin="round"/>
<path id="Vector_2" d="M30.8339 5.55042C31.4969 4.81969 32.3962 4.40918 33.3339 4.40918C34.2716 4.40918 35.1708 4.81969 35.8339 5.55042C36.4969 6.28115 36.8694 7.27222 36.8694 8.30563C36.8694 9.33902 36.4969 10.3301 35.8339 11.0608L20.0005 28.5105L13.3339 30.3472L15.0006 23L30.8339 5.55042Z" stroke="#7A9CA5" stroke-width="2" stroke-linecap="round" stroke-linejoin="round"/>
</g>
</svg>
