<svg width="81" height="18" viewBox="0 0 81 18" fill="none" xmlns="http://www.w3.org/2000/svg">
<g id="IMAGE">
<path id="Vector" d="M79.6348 6.762L74.7271 6.3435L72.809 1.875L70.8909 6.35025L65.9832 6.762L69.7101 9.95475L68.5906 14.7L72.809 12.1823L77.0274 14.7L75.9148 9.95475L79.6348 6.762ZM72.809 10.92V4.6425L73.9762 7.3695L76.9659 7.626L74.6998 9.57L75.3823 12.459L72.809 10.92Z" fill="white"/>
<g id="Group">
<path id="Vector_2" d="M8.19102 12.1823L12.4094 14.7L11.2899 9.95475L15.0169 6.762L10.1091 6.35025L8.19102 1.875L6.27295 6.35025L1.36517 6.762L5.09208 9.95475L3.97265 14.7L8.19102 12.1823Z" fill="white"/>
</g>
<g id="Group_2">
<path id="Vector_3" d="M24.573 12.1823L28.7914 14.7L27.672 9.95475L31.3989 6.762L26.4911 6.35025L24.573 1.875L22.655 6.35025L17.7472 6.762L21.4741 9.95475L20.3547 14.7L24.573 12.1823Z" fill="white"/>
</g>
<g id="Group_3">
<path id="Vector_4" d="M40.9551 12.1823L45.1734 14.7L44.054 9.95475L47.7809 6.762L42.8731 6.35025L40.9551 1.875L39.037 6.35025L34.1292 6.762L37.8561 9.95475L36.7367 14.7L40.9551 12.1823Z" fill="white"/>
</g>
<g id="Group_4">
<path id="Vector_5" d="M56.427 12.1823L60.6453 14.7L59.5259 9.95475L63.2528 6.762L58.345 6.35025L56.427 1.875L54.5089 6.35025L49.6011 6.762L53.328 9.95475L52.2086 14.7L56.427 12.1823Z" fill="white"/>
</g>
</g>
</svg>
